<?xml version="1.0" encoding="UTF-8"?>
<svg width="103px" height="105px" viewBox="0 0 103 105" version="1.1" xmlns="http://www.w3.org/2000/svg" xmlns:xlink="http://www.w3.org/1999/xlink">
    <title>Group</title>
    <g id="Page-1" stroke="none" stroke-width="1" fill="none" fill-rule="evenodd">
        <g id="Group" transform="translate(0.509495, 0.893088)" fill="#000000" fill-rule="nonzero">
            <g id="p3-link" transform="translate(0.000000, -0.000000)">
                <path d="M3.72566787,0 C5.48097473,2.24801471 6.96891697,4.65286765 8.86953069,6.79051471 C13.0892419,11.7280147 18.5004693,15.7128676 24.2371841,18.7218382 C30.5958123,22.1141912 37.4891697,24.1530882 43.7373646,27.6964706 C47.8524549,30.0025735 51.3979422,33.2148529 54.2343321,36.9789706 C56.7975451,40.4875 58.2448014,44.3794118 59.6164982,48.4572059 C60.3837184,45.91875 60.4011552,43.8682353 59.994296,41.2658824 C62.6098195,40.2667647 65.1323466,39.20375 67.3351986,37.4378676 C71.2352347,34.4521324 73.5136462,29.9561029 76.2163538,25.9770588 C78.0414079,23.2759559 80.4593141,20.6503676 83.6153791,19.5525 C87.4572924,18.3675 91.938556,18.9251471 94.6819495,22.1025735 C96.1989531,23.6361029 96.6464982,25.4891176 96.8615523,27.5744853 C99.291083,29.1602941 101.284693,30.6763971 102.284404,33.5227206 C99.8781227,33.2206618 96.9952347,32.5061765 94.6470758,33.2729412 C92.002491,34.1094118 90.1774368,36.5839706 89.2939711,39.1108088 C87.9048375,42.9794853 88.0908303,46.7029412 87.3933574,50.6645588 C86.3529603,57.6525735 83.4700722,64.3966176 78.4424549,69.4502941 C73.4322744,74.4226471 66.6086643,77.8324265 59.6804332,79.0638971 C57.2160289,79.1800735 57.1695307,76.8972059 55.8559567,75.4391912 C53.9262816,74.0683088 50.9329603,74.6491912 49.6368231,76.6590441 C48.6661733,77.9660294 49.0788448,79.5634559 49.0962816,81.0911765 C45.8588448,81.2828676 42.4237906,81.0679412 39.2619134,81.8347059 C36.140722,82.6188971 34.6237184,85.2967647 32.624296,87.5563971 C31.0084838,89.3745588 29.4740433,91.4541176 27.5269314,92.9179412 C24.6672924,94.9742647 20.9474368,95.2356618 17.7274368,93.8996324 C19.7152347,91.8433088 21.819278,89.9263971 23.6268953,87.6958088 C20.0930325,89.3745588 17.2915162,91.5063971 13.1589892,91.2798529 C10.6015884,91.2914706 8.75909747,89.9844853 6.9166065,88.3754412 C9.89249097,86.9522794 12.9555596,85.7963235 15.8093863,84.1291912 C13.5890975,84.2918382 11.3223105,84.6810294 9.09039711,84.5880882 C5.94595668,84.2221324 2.77245487,82.7815441 1.67393502,79.5808824 C2.9700722,79.1510294 4.27202166,78.7560294 5.62046931,78.5120588 C12.1127798,77.3561029 18.8492058,75.93875 24.9985921,73.5164706 C28.8928159,71.9713235 32.8161011,69.9091912 35.6408664,66.7433824 C37.0474368,65.2330882 37.7332852,63.5485294 39.8024549,62.805 C42.1680505,61.8465441 43.6327437,60.7254412 45.2834296,58.8085294 C41.5228881,59.9470588 37.9134657,60.8067647 33.9553069,60.1155147 C27.5908664,58.9886029 21.0869314,55.6601471 17.2508303,50.3276471 C21.6100361,50.8446324 25.8762455,50.6761765 29.9274007,48.8463971 C24.0337545,48.4920588 18.2156679,47.4871324 13.1008664,44.3736029 C9.77043321,42.3347059 7.46877256,39.3141176 5.67277978,35.8985294 C10.3458484,38.0361765 15.1293502,39.5232353 20.337148,39.1630882 C17.8262455,38.0245588 15.2572202,37.22875 12.816065,35.9333824 C8.74747292,33.7841176 5.13805054,30.8448529 2.66202166,26.9238971 C0.778844765,23.9207353 0.174368231,20.0811029 0,16.6016176 C3.58036101,20.9756618 7.92794224,24.6061765 13.3101083,26.5405147 C10.6713357,23.6361029 7.85819495,21.3822794 5.84714801,17.9318382 C4.08021661,14.8763971 2.39465704,11.2923529 2.24935018,7.71992647 C2.15054152,4.96073529 2.1098556,2.37580882 3.72566787,0 Z M86.5622022,26.3372059 C87.4166065,27.2956618 87.8409025,28.3528676 89.3288448,28.3354412 C90.4215523,28.0043382 90.7935379,27.1097794 91.5026354,26.3081618 C90.7354152,25.0999265 90.5319856,24.0194853 88.8289892,24.1647059 C87.3759206,24.2286029 87.2654874,25.3206618 86.5622022,26.3372059 Z" id="p3"></path>
            </g>
            <g id="p5-link" transform="translate(51.094233, 76.624191)">
                <path d="M2.1520123,0 C2.65768017,0.174264706 3.15753577,0.348529412 3.66320364,0.528602941 C3.8085105,1.31279412 3.95381735,2.09698529 4.10493649,2.87536765 C5.71493649,3.84544118 7.94684985,4.70514706 8.58620003,6.62205882 C9.12092927,8.23691176 9.2952975,10.2351471 7.39468378,11.0077206 C6.3019762,10.1073529 6.86576681,8.28338235 6.47053216,6.98801471 C4.85471988,5.12919118 1.95439497,4.76904412 0.251398582,3.23551471 C-0.521633909,1.51029412 0.59432277,0.522794118 2.1520123,0 Z" id="p5"></path>
            </g>
            <g id="p6-link" transform="translate(46.579567, 80.940147)">
                <path d="M22.7259928,-1.65096694e-14 C20.2674007,3.99066176 17.6693141,7.91742647 15.0131047,11.7744853 C14.1005776,13.3196324 12.75213,12.3727941 11.4908664,11.9371324 C7.63151625,10.17125 3.76054152,8.41117647 1.65194773e-14,6.43617647 C3.02819495,5.42544118 6.09707581,4.58897059 9.17176895,3.72926471 C9.2298917,4.80389706 9.02064982,6.08183824 9.41588448,7.09838235 C10.549278,8.69 12.9032491,8.96882353 14.2865704,7.51661765 C15.8268231,6.14573529 15.2572202,3.89191176 15.3269675,2.06794118 C17.7797473,1.31860294 20.2325271,0.598308824 22.7259928,-1.65096694e-14 Z" id="p6"></path>
            </g>
            <g id="p7-link" transform="translate(45.649603, 82.072868)">
                <path d="M25.5216968,0 C26.7829603,3.56080882 27.5676173,7.26102941 28.7184477,10.8566912 C29.0729964,12.4657353 29.8402166,14.2025735 28.3929603,15.5095588 C26.6260289,16.6016176 24.2836823,16.8746324 22.307509,17.47875 C17.4600722,18.8902941 12.5893863,20.2088971 7.74776173,21.62625 C6.67830325,21.8934559 5.63790614,22.1374265 4.56263538,21.7308088 C3.41761733,21.0802206 3.13862816,19.2911029 2.75501805,18.1293382 C1.82505415,14.4291176 0.424296029,11.06 0,7.24360294 C3.10956679,8.62029412 6.2133213,10.0202206 9.27057762,11.5072794 C8.05,13.8772794 6.47487365,16.1194853 5.48097473,18.5940441 L6.53299639,19.4769853 C8.52079422,17.5542647 9.55537906,14.7079412 11.1479422,12.4541176 C12.5428881,12.9304412 14.3505054,13.9644118 15.8326354,13.5171324 C17.0415884,12.7968382 17.8262455,11.2691176 18.6341516,10.1480147 C20.8835018,11.2226471 22.9817329,12.6980882 25.2950181,13.6158824 C25.9808664,13.9992647 26.4458484,13.6797794 26.6957762,12.6574265 C24.6614801,10.96125 22.0575812,9.93308824 19.8024188,8.53316176 C21.2554874,6.18058824 22.772491,3.86867647 24.3708664,1.60904412 C24.7486643,1.07463235 25.1380866,0.534411765 25.5216968,0 Z" id="p7"></path>
            </g>
        </g>
    </g>
</svg>