<?xml version="1.0" encoding="UTF-8"?>
<svg width="151px" height="151px" viewBox="0 0 151 151" version="1.1" xmlns="http://www.w3.org/2000/svg" xmlns:xlink="http://www.w3.org/1999/xlink">
    <title>Group 2</title>
    <defs>
        <rect id="path-1" x="0" y="0" width="151" height="151" rx="35"></rect>
    </defs>
    <g id="Page-1" stroke="none" stroke-width="1" fill="none" fill-rule="evenodd">
        <g id="Group-2">
            <mask id="mask-2" fill="white">
                <use xlink:href="#path-1"></use>
            </mask>
            <g id="Rectangle"></g>
            <g id="icon" mask="url(#mask-2)">
                <g transform="translate(-3.000000, -3.000000)" id="Group">
                    <g>
                        <g id="p0-link" fill="#000000" fill-rule="nonzero" stroke="#FFFFFF">
                            <path d="M0,0 L161,0 L161,158 L0,158 L0,0 Z M153.258051,30.81 C153.037184,23.7522794 150.665776,16.9443382 145.678845,11.8441912 C141.877617,7.75477941 136.757004,4.96073529 131.246968,4.03713235 C128.003718,3.53176471 124.777906,3.06705882 121.488159,3.13095588 C92.6302166,3.07867647 63.7780866,3.08448529 34.9259567,3.12514706 C28.8928159,3.28198529 22.0924549,4.31595588 16.9195307,7.60955882 C10.9328881,11.4956618 6.36444043,17.3974265 4.86487365,24.4435294 C4.25458484,27.9230147 3.71404332,31.3095588 3.77797834,34.8529412 C3.74310469,64.08875 3.76054152,93.3303676 3.76635379,122.566176 C3.76054152,128.084559 4.42314079,133.446103 6.6899278,138.523015 C10.0087365,145.923456 16.6812274,151.639338 24.5219856,153.736324 C28.8870036,154.810956 33.3101444,154.956176 37.7797834,154.927132 C64.5162455,154.932941 91.2527076,154.932941 117.98917,154.921324 C122.540181,154.845809 126.864513,155.078162 131.339964,154.003529 C136.530325,152.917279 141.278953,150.448529 145.045307,146.701838 C148.677978,143.338529 151.13657,138.662426 152.496643,133.945662 C153.473105,129.478676 153.723032,124.802574 153.635848,120.242647 C153.612599,92.1686029 153.635848,64.08875 153.624224,36.0147059 C153.583538,34.26625 153.391733,32.5468382 153.258051,30.81 Z" id="p0"></path>
                        </g>
                        <g id="p1-link" transform="translate(3.756834, 3.093199)" fill="#000000" fill-rule="nonzero" stroke="#8E80CD">
                            <path d="M31.169123,0.0319485294 C60.0212529,-0.00871323529 88.8733829,-0.0145220588 117.731325,0.0377573529 C121.021072,-0.0261397059 124.246885,0.438566176 127.490134,0.943933824 C133.00017,1.86753676 138.120784,4.66158088 141.922011,8.75099265 C146.908942,13.8511397 149.28035,20.6590809 149.501217,27.7168015 C149.634899,29.4536397 149.826704,31.1730515 149.86739,32.9215074 C149.879015,60.9955515 149.855766,89.0754044 149.879015,117.149449 C149.966199,121.709375 149.716271,126.385478 148.739809,130.852463 C147.379737,135.569228 144.921145,140.245331 141.288473,143.60864 C137.522119,147.355331 132.773491,149.824081 127.58313,150.910331 C123.107679,151.984963 118.783347,151.75261 114.232336,151.828125 C87.4958739,151.839743 60.7594118,151.839743 34.0229497,151.833934 C29.5533107,151.862978 25.1301699,151.717757 20.7651519,150.643125 C12.9243937,148.54614 6.25190277,142.830257 2.9330941,135.429816 C0.666307101,130.352904 0.00370782277,124.99136 0.00952009713,119.472978 C0.00370782277,90.2371691 -0.0137290003,60.9955515 0.0211446459,31.7597426 C-0.0427903722,28.2163603 0.497751144,24.8298162 1.10803995,21.3503309 C2.60760674,14.3042279 7.17605439,8.40246324 13.162697,4.51636029 C18.3356212,1.22275735 25.1359822,0.188786765 31.169123,0.0319485294 Z M59.1552241,40.9841544 C56.9000616,39.055625 54.9820111,37.0167279 53.5231302,34.414375 C53.2267042,37.4930515 53.1976428,40.4555515 53.5812529,43.5284191 C58.835549,45.9332721 64.514141,48.0012132 69.5591952,50.8359191 C75.0692313,53.9784926 79.4923721,58.5558456 82.6542493,64.039375 C84.3049353,63.4004044 85.9265598,62.7207721 87.5133107,61.9481985 C86.4787259,57.0920221 84.1886898,52.5727574 80.6315779,49.0816544 C77.5278233,45.9739338 74.214827,43.0985662 70.9773901,40.1360662 C67.5539605,36.7495221 64.3165237,32.7530515 62.4624082,28.2686397 C61.5150075,26.0787132 60.8989064,23.7726103 59.8003865,21.7162868 C58.074141,24.1618015 56.8477511,26.9674632 56.7663793,29.9996691 C56.632697,33.6592279 58.0567042,37.5279044 59.1552241,40.9841544 Z M37.0627692,52.3404044 C31.6806031,50.4060662 27.3330219,46.7755515 23.7526609,42.4015074 C23.9270291,45.8809926 24.5315057,49.720625 26.4146826,52.7237868 C28.8907114,56.6447426 32.5001338,59.5840074 36.5687259,61.7332721 C39.0098811,63.0286397 41.5789064,63.8244485 44.0898089,64.9629779 C38.8820111,65.323125 34.0985093,63.8360662 29.4254407,61.6984191 C31.2214335,65.1140074 33.5230941,68.1345956 36.8535273,70.1734926 C41.9683288,73.2870221 47.7864154,74.2919485 53.6800616,74.6462868 C49.6289064,76.4760662 45.362697,76.6445221 41.0034912,76.1275368 C44.8395923,81.4600368 51.3435273,84.7884926 57.7079678,85.9154044 C61.6661266,86.6066544 65.275549,85.7469485 69.0360905,84.6084191 C67.3854046,86.5253309 65.9207114,87.6464338 63.5551158,88.6048897 C61.4859461,89.3484191 60.8000977,91.0329779 59.3935273,92.5432721 C56.568762,95.7090809 52.6454768,97.7712132 48.7512529,99.3163603 C42.6018667,101.73864 35.8654407,103.155993 29.3731302,104.311949 C28.0246826,104.555919 26.7227331,104.950919 25.4265959,105.380772 C26.5251158,108.581434 29.6986176,110.022022 32.843058,110.387978 C35.0749714,110.480919 37.3417584,110.091728 39.5620472,109.929081 C36.7082205,111.596213 33.6451519,112.752169 30.6692674,114.175331 C32.5117584,115.784375 34.3542493,117.09136 36.9116501,117.079743 C41.0441771,117.306287 43.8456934,115.174449 47.3795562,113.495699 C45.5719389,115.726287 43.4678955,117.643199 41.4800977,119.699522 C44.7000977,121.035551 48.4199533,120.774154 51.2795923,118.717831 C53.2267042,117.254007 54.7611446,115.174449 56.3769569,113.356287 C58.3763793,111.096654 59.8933829,108.418787 63.0145742,107.634596 C66.1764515,106.867831 69.6115057,107.082757 72.8489425,106.891066 C72.8315057,105.363346 72.4188342,103.765919 73.389484,102.458934 C74.6856212,100.449081 77.6789425,99.8681985 79.6086176,101.239081 C80.9221916,102.697096 80.9686898,104.979963 83.4330941,104.863787 C90.3613252,103.632316 97.1849353,100.222537 102.195116,95.2501838 C107.222733,90.1965074 110.105621,83.4524632 111.146018,76.4644485 C111.843491,72.5028309 111.657498,68.779375 113.046632,64.9106985 C113.930098,62.3838603 115.755152,59.9093015 118.399737,59.0728309 C120.747896,58.3060662 123.630784,59.0205515 126.037065,59.3226103 C125.037354,56.4762868 123.043744,54.9601838 120.614213,53.374375 C120.399159,51.2890074 119.951614,49.4359926 118.43461,47.9024632 C115.691217,44.7250368 111.209953,44.1673897 107.36804,45.3523897 C104.211975,46.4502574 101.794069,49.0758456 99.9690147,51.7769485 C97.2663071,55.7559926 94.9878955,60.2520221 91.0878594,63.2377574 C88.8850075,65.0036397 86.3624804,66.0666544 83.7469569,67.0657721 C84.1538161,69.668125 84.1363793,71.7186397 83.3691591,74.2570956 C81.9974623,70.1793015 80.550206,66.2873897 77.986993,62.7788603 C75.1506031,59.0147426 71.6051158,55.8024632 67.4900255,53.4963603 C61.2418306,49.9529779 54.3484732,47.9140809 47.989845,44.5217279 C42.2531302,41.5127574 36.8419028,37.5279044 32.6221916,32.5904044 C30.7215779,30.4527574 29.2336356,28.0479044 27.4783288,25.7998897 C25.8625165,28.1756985 25.9032024,30.760625 26.0020111,33.5198162 C26.1473179,37.0922426 27.8328775,40.6762868 29.5998089,43.7317279 C31.6108558,47.1821691 34.4239966,49.4359926 37.0627692,52.3404044 Z M78.9518306,105.299449 C78.8007114,104.521066 78.6554046,103.736875 78.5100977,102.952684 C78.0044298,102.77261 77.5045742,102.598346 76.9989064,102.424081 C75.4412168,102.946875 74.3252602,103.934375 75.0982927,105.659596 C76.8012891,107.193125 79.701614,107.553272 81.3174262,109.412096 C81.7126609,110.707463 81.1488703,112.531434 82.2415779,113.431801 C84.1421916,112.659228 83.9678233,110.660993 83.4330941,109.04614 C82.7937439,107.129228 80.5618306,106.269522 78.9518306,105.299449 Z M85.6591952,108.807978 C85.5894479,110.631949 86.1590508,112.885772 84.6187981,114.256654 C83.2354768,115.70886 80.8815057,115.430037 79.7481122,113.838419 C79.3528775,112.821875 79.5621194,111.543934 79.5039966,110.469301 C76.4293035,111.329007 73.3604226,112.165478 70.3322277,113.176213 C74.0927692,115.151213 77.9637439,116.911287 81.8230941,118.677169 C83.0843576,119.112831 84.4328053,120.059669 85.3453324,118.514522 C88.0015418,114.657463 90.5996284,110.730699 93.0582205,106.740037 C90.5647548,107.338346 88.111975,108.05864 85.6591952,108.807978 Z M94.9239605,107.872757 C94.5403504,108.407169 94.150928,108.94739 93.7731302,109.481801 C92.1747548,111.741434 90.6577511,114.053346 89.2046826,116.405919 C91.459845,117.805846 94.0637439,118.834007 96.09804,120.530184 C95.8481122,121.552537 95.3831302,121.872022 94.6972818,121.48864 C92.3839966,120.570846 90.2857656,119.095404 88.0364154,118.020772 C87.2285093,119.141875 86.4438522,120.669596 85.2348992,121.38989 C83.7527692,121.837169 81.9451519,120.803199 80.550206,120.326875 C78.9576428,122.580699 77.923058,125.427022 75.9352602,127.349743 L74.8832385,126.466801 C75.8771374,123.992243 77.4522638,121.750037 78.6728414,119.380037 C75.6155851,117.892978 72.5118306,116.493051 69.4022638,115.11636 C69.8265598,118.932757 71.2273179,122.301875 72.1572818,126.002096 C72.5408919,127.16386 72.8198811,128.952978 73.9648992,129.603566 C75.0401699,130.010184 76.080567,129.766213 77.1500255,129.499007 C81.9916501,128.081654 86.862336,126.763051 91.7097728,125.351507 C93.6859461,124.74739 96.0282927,124.474375 97.7952241,123.382316 C99.2424804,122.075331 98.4752602,120.338493 98.1207114,118.729449 C96.9698811,115.133787 96.1852241,111.433566 94.9239605,107.872757 Z" id="p1"></path>
                        </g>
                        <g id="p2-link" transform="translate(57.053895, 24.809485)" fill="#000000" fill-rule="nonzero" stroke="#FFFFFF">
                            <path d="M6.50332509,4.12741736e-15 C7.60184495,2.05632353 8.21794603,4.36242647 9.16534675,6.55235294 C11.0194623,11.0367647 14.2568991,15.0332353 17.6803287,18.4197794 C20.9177655,21.3822794 24.2307619,24.2576471 27.3345164,27.3653676 C30.8916283,30.8564706 33.1816644,35.3757353 34.2162493,40.2319118 C32.6294984,41.0044853 31.0078738,41.6841176 29.3571879,42.3230882 C26.1953107,36.8395588 21.7721699,32.2622059 16.2621338,29.1196324 C11.2170796,26.2849265 5.53848755,24.2169853 0.284191519,21.8121324 C-0.099418589,18.7392647 -0.0703572171,15.7767647 0.226068776,12.6980882 C1.68494964,15.3004412 3.60300018,17.3393382 5.85816264,19.2678676 C4.75964278,15.8116176 3.33563556,11.9429412 3.46931787,8.28338235 C3.55068971,5.25117647 4.77707961,2.44551471 6.50332509,4.12741736e-15 Z" id="p2"></path>
                        </g>
                        <g id="p3-link" transform="translate(27.509495, 28.893088)" fill="#000000" fill-rule="nonzero" stroke="#FFFFFF">
                            <path d="M3.72566787,0 C5.48097473,2.24801471 6.96891697,4.65286765 8.86953069,6.79051471 C13.0892419,11.7280147 18.5004693,15.7128676 24.2371841,18.7218382 C30.5958123,22.1141912 37.4891697,24.1530882 43.7373646,27.6964706 C47.8524549,30.0025735 51.3979422,33.2148529 54.2343321,36.9789706 C56.7975451,40.4875 58.2448014,44.3794118 59.6164982,48.4572059 C60.3837184,45.91875 60.4011552,43.8682353 59.994296,41.2658824 C62.6098195,40.2667647 65.1323466,39.20375 67.3351986,37.4378676 C71.2352347,34.4521324 73.5136462,29.9561029 76.2163538,25.9770588 C78.0414079,23.2759559 80.4593141,20.6503676 83.6153791,19.5525 C87.4572924,18.3675 91.938556,18.9251471 94.6819495,22.1025735 C96.1989531,23.6361029 96.6464982,25.4891176 96.8615523,27.5744853 C99.291083,29.1602941 101.284693,30.6763971 102.284404,33.5227206 C99.8781227,33.2206618 96.9952347,32.5061765 94.6470758,33.2729412 C92.002491,34.1094118 90.1774368,36.5839706 89.2939711,39.1108088 C87.9048375,42.9794853 88.0908303,46.7029412 87.3933574,50.6645588 C86.3529603,57.6525735 83.4700722,64.3966176 78.4424549,69.4502941 C73.4322744,74.4226471 66.6086643,77.8324265 59.6804332,79.0638971 C57.2160289,79.1800735 57.1695307,76.8972059 55.8559567,75.4391912 C53.9262816,74.0683088 50.9329603,74.6491912 49.6368231,76.6590441 C48.6661733,77.9660294 49.0788448,79.5634559 49.0962816,81.0911765 C45.8588448,81.2828676 42.4237906,81.0679412 39.2619134,81.8347059 C36.140722,82.6188971 34.6237184,85.2967647 32.624296,87.5563971 C31.0084838,89.3745588 29.4740433,91.4541176 27.5269314,92.9179412 C24.6672924,94.9742647 20.9474368,95.2356618 17.7274368,93.8996324 C19.7152347,91.8433088 21.819278,89.9263971 23.6268953,87.6958088 C20.0930325,89.3745588 17.2915162,91.5063971 13.1589892,91.2798529 C10.6015884,91.2914706 8.75909747,89.9844853 6.9166065,88.3754412 C9.89249097,86.9522794 12.9555596,85.7963235 15.8093863,84.1291912 C13.5890975,84.2918382 11.3223105,84.6810294 9.09039711,84.5880882 C5.94595668,84.2221324 2.77245487,82.7815441 1.67393502,79.5808824 C2.9700722,79.1510294 4.27202166,78.7560294 5.62046931,78.5120588 C12.1127798,77.3561029 18.8492058,75.93875 24.9985921,73.5164706 C28.8928159,71.9713235 32.8161011,69.9091912 35.6408664,66.7433824 C37.0474368,65.2330882 37.7332852,63.5485294 39.8024549,62.805 C42.1680505,61.8465441 43.6327437,60.7254412 45.2834296,58.8085294 C41.5228881,59.9470588 37.9134657,60.8067647 33.9553069,60.1155147 C27.5908664,58.9886029 21.0869314,55.6601471 17.2508303,50.3276471 C21.6100361,50.8446324 25.8762455,50.6761765 29.9274007,48.8463971 C24.0337545,48.4920588 18.2156679,47.4871324 13.1008664,44.3736029 C9.77043321,42.3347059 7.46877256,39.3141176 5.67277978,35.8985294 C10.3458484,38.0361765 15.1293502,39.5232353 20.337148,39.1630882 C17.8262455,38.0245588 15.2572202,37.22875 12.816065,35.9333824 C8.74747292,33.7841176 5.13805054,30.8448529 2.66202166,26.9238971 C0.778844765,23.9207353 0.174368231,20.0811029 0,16.6016176 C3.58036101,20.9756618 7.92794224,24.6061765 13.3101083,26.5405147 C10.6713357,23.6361029 7.85819495,21.3822794 5.84714801,17.9318382 C4.08021661,14.8763971 2.39465704,11.2923529 2.24935018,7.71992647 C2.15054152,4.96073529 2.1098556,2.37580882 3.72566787,0 Z M86.5622022,26.3372059 C87.4166065,27.2956618 87.8409025,28.3528676 89.3288448,28.3354412 C90.4215523,28.0043382 90.7935379,27.1097794 91.5026354,26.3081618 C90.7354152,25.0999265 90.5319856,24.0194853 88.8289892,24.1647059 C87.3759206,24.2286029 87.2654874,25.3206618 86.5622022,26.3372059 Z" id="p3"></path>
                        </g>
                        <g id="p4-link" transform="translate(114.071697, 53.044652)" fill="#000000" fill-rule="nonzero" stroke="#8E80CD">
                            <path d="M2.266787,0.0131425332 C3.96978339,-0.132078055 4.173213,0.948363121 4.94043321,2.15659842 C4.23133574,2.95821606 3.85935018,3.85277489 2.7666426,4.18387783 C1.27870036,4.2013043 0.854404332,3.14409842 0,2.18564253 C0.703285199,1.16909842 0.813718412,0.077039592 2.266787,0.0131425332 Z" id="p4"></path>
                        </g>
                        <g id="p5-link" transform="translate(78.603728, 105.517279)" fill="#000000" fill-rule="nonzero" stroke="#FFFFFF">
                            <path d="M2.1520123,0 C2.65768017,0.174264706 3.15753577,0.348529412 3.66320364,0.528602941 C3.8085105,1.31279412 3.95381735,2.09698529 4.10493649,2.87536765 C5.71493649,3.84544118 7.94684985,4.70514706 8.58620003,6.62205882 C9.12092927,8.23691176 9.2952975,10.2351471 7.39468378,11.0077206 C6.3019762,10.1073529 6.86576681,8.28338235 6.47053216,6.98801471 C4.85471988,5.12919118 1.95439497,4.76904412 0.251398582,3.23551471 C-0.521633909,1.51029412 0.59432277,0.522794118 2.1520123,0 Z" id="p5"></path>
                        </g>
                        <g id="p6-link" transform="translate(74.089061, 109.833235)" fill="#000000" fill-rule="nonzero" stroke="#FFFFFF">
                            <path d="M22.7259928,-1.65096694e-14 C20.2674007,3.99066176 17.6693141,7.91742647 15.0131047,11.7744853 C14.1005776,13.3196324 12.75213,12.3727941 11.4908664,11.9371324 C7.63151625,10.17125 3.76054152,8.41117647 1.65194773e-14,6.43617647 C3.02819495,5.42544118 6.09707581,4.58897059 9.17176895,3.72926471 C9.2298917,4.80389706 9.02064982,6.08183824 9.41588448,7.09838235 C10.549278,8.69 12.9032491,8.96882353 14.2865704,7.51661765 C15.8268231,6.14573529 15.2572202,3.89191176 15.3269675,2.06794118 C17.7797473,1.31860294 20.2325271,0.598308824 22.7259928,-1.65096694e-14 Z" id="p6"></path>
                        </g>
                        <g id="p7-link" transform="translate(73.159097, 110.965956)" fill="#000000" fill-rule="nonzero" stroke="#FFFFFF">
                            <path d="M25.5216968,0 C26.7829603,3.56080882 27.5676173,7.26102941 28.7184477,10.8566912 C29.0729964,12.4657353 29.8402166,14.2025735 28.3929603,15.5095588 C26.6260289,16.6016176 24.2836823,16.8746324 22.307509,17.47875 C17.4600722,18.8902941 12.5893863,20.2088971 7.74776173,21.62625 C6.67830325,21.8934559 5.63790614,22.1374265 4.56263538,21.7308088 C3.41761733,21.0802206 3.13862816,19.2911029 2.75501805,18.1293382 C1.82505415,14.4291176 0.424296029,11.06 0,7.24360294 C3.10956679,8.62029412 6.2133213,10.0202206 9.27057762,11.5072794 C8.05,13.8772794 6.47487365,16.1194853 5.48097473,18.5940441 L6.53299639,19.4769853 C8.52079422,17.5542647 9.55537906,14.7079412 11.1479422,12.4541176 C12.5428881,12.9304412 14.3505054,13.9644118 15.8326354,13.5171324 C17.0415884,12.7968382 17.8262455,11.2691176 18.6341516,10.1480147 C20.8835018,11.2226471 22.9817329,12.6980882 25.2950181,13.6158824 C25.9808664,13.9992647 26.4458484,13.6797794 26.6957762,12.6574265 C24.6614801,10.96125 22.0575812,9.93308824 19.8024188,8.53316176 C21.2554874,6.18058824 22.772491,3.86867647 24.3708664,1.60904412 C24.7486643,1.07463235 25.1380866,0.534411765 25.5216968,0 Z" id="p7"></path>
                        </g>
                    </g>
                    <g>
                        <g id="p0-link" fill="#FFFFFF" fill-rule="nonzero">
                            <path d="M0,0 L161,0 L161,158 L0,158 L0,0 Z M153.258051,30.81 C153.037184,23.7522794 150.665776,16.9443382 145.678845,11.8441912 C141.877617,7.75477941 136.757004,4.96073529 131.246968,4.03713235 C128.003718,3.53176471 124.777906,3.06705882 121.488159,3.13095588 C92.6302166,3.07867647 63.7780866,3.08448529 34.9259567,3.12514706 C28.8928159,3.28198529 22.0924549,4.31595588 16.9195307,7.60955882 C10.9328881,11.4956618 6.36444043,17.3974265 4.86487365,24.4435294 C4.25458484,27.9230147 3.71404332,31.3095588 3.77797834,34.8529412 C3.74310469,64.08875 3.76054152,93.3303676 3.76635379,122.566176 C3.76054152,128.084559 4.42314079,133.446103 6.6899278,138.523015 C10.0087365,145.923456 16.6812274,151.639338 24.5219856,153.736324 C28.8870036,154.810956 33.3101444,154.956176 37.7797834,154.927132 C64.5162455,154.932941 91.2527076,154.932941 117.98917,154.921324 C122.540181,154.845809 126.864513,155.078162 131.339964,154.003529 C136.530325,152.917279 141.278953,150.448529 145.045307,146.701838 C148.677978,143.338529 151.13657,138.662426 152.496643,133.945662 C153.473105,129.478676 153.723032,124.802574 153.635848,120.242647 C153.612599,92.1686029 153.635848,64.08875 153.624224,36.0147059 C153.583538,34.26625 153.391733,32.5468382 153.258051,30.81 Z" id="p0"></path>
                        </g>
                        <g id="p1-link" transform="translate(3.756834, 3.093199)" fill="#8E80CD" fill-rule="nonzero">
                            <path d="M31.169123,0.0319485294 C60.0212529,-0.00871323529 88.8733829,-0.0145220588 117.731325,0.0377573529 C121.021072,-0.0261397059 124.246885,0.438566176 127.490134,0.943933824 C133.00017,1.86753676 138.120784,4.66158088 141.922011,8.75099265 C146.908942,13.8511397 149.28035,20.6590809 149.501217,27.7168015 C149.634899,29.4536397 149.826704,31.1730515 149.86739,32.9215074 C149.879015,60.9955515 149.855766,89.0754044 149.879015,117.149449 C149.966199,121.709375 149.716271,126.385478 148.739809,130.852463 C147.379737,135.569228 144.921145,140.245331 141.288473,143.60864 C137.522119,147.355331 132.773491,149.824081 127.58313,150.910331 C123.107679,151.984963 118.783347,151.75261 114.232336,151.828125 C87.4958739,151.839743 60.7594118,151.839743 34.0229497,151.833934 C29.5533107,151.862978 25.1301699,151.717757 20.7651519,150.643125 C12.9243937,148.54614 6.25190277,142.830257 2.9330941,135.429816 C0.666307101,130.352904 0.00370782277,124.99136 0.00952009713,119.472978 C0.00370782277,90.2371691 -0.0137290003,60.9955515 0.0211446459,31.7597426 C-0.0427903722,28.2163603 0.497751144,24.8298162 1.10803995,21.3503309 C2.60760674,14.3042279 7.17605439,8.40246324 13.162697,4.51636029 C18.3356212,1.22275735 25.1359822,0.188786765 31.169123,0.0319485294 Z M59.1552241,40.9841544 C56.9000616,39.055625 54.9820111,37.0167279 53.5231302,34.414375 C53.2267042,37.4930515 53.1976428,40.4555515 53.5812529,43.5284191 C58.835549,45.9332721 64.514141,48.0012132 69.5591952,50.8359191 C75.0692313,53.9784926 79.4923721,58.5558456 82.6542493,64.039375 C84.3049353,63.4004044 85.9265598,62.7207721 87.5133107,61.9481985 C86.4787259,57.0920221 84.1886898,52.5727574 80.6315779,49.0816544 C77.5278233,45.9739338 74.214827,43.0985662 70.9773901,40.1360662 C67.5539605,36.7495221 64.3165237,32.7530515 62.4624082,28.2686397 C61.5150075,26.0787132 60.8989064,23.7726103 59.8003865,21.7162868 C58.074141,24.1618015 56.8477511,26.9674632 56.7663793,29.9996691 C56.632697,33.6592279 58.0567042,37.5279044 59.1552241,40.9841544 Z M37.0627692,52.3404044 C31.6806031,50.4060662 27.3330219,46.7755515 23.7526609,42.4015074 C23.9270291,45.8809926 24.5315057,49.720625 26.4146826,52.7237868 C28.8907114,56.6447426 32.5001338,59.5840074 36.5687259,61.7332721 C39.0098811,63.0286397 41.5789064,63.8244485 44.0898089,64.9629779 C38.8820111,65.323125 34.0985093,63.8360662 29.4254407,61.6984191 C31.2214335,65.1140074 33.5230941,68.1345956 36.8535273,70.1734926 C41.9683288,73.2870221 47.7864154,74.2919485 53.6800616,74.6462868 C49.6289064,76.4760662 45.362697,76.6445221 41.0034912,76.1275368 C44.8395923,81.4600368 51.3435273,84.7884926 57.7079678,85.9154044 C61.6661266,86.6066544 65.275549,85.7469485 69.0360905,84.6084191 C67.3854046,86.5253309 65.9207114,87.6464338 63.5551158,88.6048897 C61.4859461,89.3484191 60.8000977,91.0329779 59.3935273,92.5432721 C56.568762,95.7090809 52.6454768,97.7712132 48.7512529,99.3163603 C42.6018667,101.73864 35.8654407,103.155993 29.3731302,104.311949 C28.0246826,104.555919 26.7227331,104.950919 25.4265959,105.380772 C26.5251158,108.581434 29.6986176,110.022022 32.843058,110.387978 C35.0749714,110.480919 37.3417584,110.091728 39.5620472,109.929081 C36.7082205,111.596213 33.6451519,112.752169 30.6692674,114.175331 C32.5117584,115.784375 34.3542493,117.09136 36.9116501,117.079743 C41.0441771,117.306287 43.8456934,115.174449 47.3795562,113.495699 C45.5719389,115.726287 43.4678955,117.643199 41.4800977,119.699522 C44.7000977,121.035551 48.4199533,120.774154 51.2795923,118.717831 C53.2267042,117.254007 54.7611446,115.174449 56.3769569,113.356287 C58.3763793,111.096654 59.8933829,108.418787 63.0145742,107.634596 C66.1764515,106.867831 69.6115057,107.082757 72.8489425,106.891066 C72.8315057,105.363346 72.4188342,103.765919 73.389484,102.458934 C74.6856212,100.449081 77.6789425,99.8681985 79.6086176,101.239081 C80.9221916,102.697096 80.9686898,104.979963 83.4330941,104.863787 C90.3613252,103.632316 97.1849353,100.222537 102.195116,95.2501838 C107.222733,90.1965074 110.105621,83.4524632 111.146018,76.4644485 C111.843491,72.5028309 111.657498,68.779375 113.046632,64.9106985 C113.930098,62.3838603 115.755152,59.9093015 118.399737,59.0728309 C120.747896,58.3060662 123.630784,59.0205515 126.037065,59.3226103 C125.037354,56.4762868 123.043744,54.9601838 120.614213,53.374375 C120.399159,51.2890074 119.951614,49.4359926 118.43461,47.9024632 C115.691217,44.7250368 111.209953,44.1673897 107.36804,45.3523897 C104.211975,46.4502574 101.794069,49.0758456 99.9690147,51.7769485 C97.2663071,55.7559926 94.9878955,60.2520221 91.0878594,63.2377574 C88.8850075,65.0036397 86.3624804,66.0666544 83.7469569,67.0657721 C84.1538161,69.668125 84.1363793,71.7186397 83.3691591,74.2570956 C81.9974623,70.1793015 80.550206,66.2873897 77.986993,62.7788603 C75.1506031,59.0147426 71.6051158,55.8024632 67.4900255,53.4963603 C61.2418306,49.9529779 54.3484732,47.9140809 47.989845,44.5217279 C42.2531302,41.5127574 36.8419028,37.5279044 32.6221916,32.5904044 C30.7215779,30.4527574 29.2336356,28.0479044 27.4783288,25.7998897 C25.8625165,28.1756985 25.9032024,30.760625 26.0020111,33.5198162 C26.1473179,37.0922426 27.8328775,40.6762868 29.5998089,43.7317279 C31.6108558,47.1821691 34.4239966,49.4359926 37.0627692,52.3404044 Z M78.9518306,105.299449 C78.8007114,104.521066 78.6554046,103.736875 78.5100977,102.952684 C78.0044298,102.77261 77.5045742,102.598346 76.9989064,102.424081 C75.4412168,102.946875 74.3252602,103.934375 75.0982927,105.659596 C76.8012891,107.193125 79.701614,107.553272 81.3174262,109.412096 C81.7126609,110.707463 81.1488703,112.531434 82.2415779,113.431801 C84.1421916,112.659228 83.9678233,110.660993 83.4330941,109.04614 C82.7937439,107.129228 80.5618306,106.269522 78.9518306,105.299449 Z M85.6591952,108.807978 C85.5894479,110.631949 86.1590508,112.885772 84.6187981,114.256654 C83.2354768,115.70886 80.8815057,115.430037 79.7481122,113.838419 C79.3528775,112.821875 79.5621194,111.543934 79.5039966,110.469301 C76.4293035,111.329007 73.3604226,112.165478 70.3322277,113.176213 C74.0927692,115.151213 77.9637439,116.911287 81.8230941,118.677169 C83.0843576,119.112831 84.4328053,120.059669 85.3453324,118.514522 C88.0015418,114.657463 90.5996284,110.730699 93.0582205,106.740037 C90.5647548,107.338346 88.111975,108.05864 85.6591952,108.807978 Z M94.9239605,107.872757 C94.5403504,108.407169 94.150928,108.94739 93.7731302,109.481801 C92.1747548,111.741434 90.6577511,114.053346 89.2046826,116.405919 C91.459845,117.805846 94.0637439,118.834007 96.09804,120.530184 C95.8481122,121.552537 95.3831302,121.872022 94.6972818,121.48864 C92.3839966,120.570846 90.2857656,119.095404 88.0364154,118.020772 C87.2285093,119.141875 86.4438522,120.669596 85.2348992,121.38989 C83.7527692,121.837169 81.9451519,120.803199 80.550206,120.326875 C78.9576428,122.580699 77.923058,125.427022 75.9352602,127.349743 L74.8832385,126.466801 C75.8771374,123.992243 77.4522638,121.750037 78.6728414,119.380037 C75.6155851,117.892978 72.5118306,116.493051 69.4022638,115.11636 C69.8265598,118.932757 71.2273179,122.301875 72.1572818,126.002096 C72.5408919,127.16386 72.8198811,128.952978 73.9648992,129.603566 C75.0401699,130.010184 76.080567,129.766213 77.1500255,129.499007 C81.9916501,128.081654 86.862336,126.763051 91.7097728,125.351507 C93.6859461,124.74739 96.0282927,124.474375 97.7952241,123.382316 C99.2424804,122.075331 98.4752602,120.338493 98.1207114,118.729449 C96.9698811,115.133787 96.1852241,111.433566 94.9239605,107.872757 Z" id="p1"></path>
                        </g>
                        <g id="p2-link" transform="translate(57.053895, 24.809485)" fill="#FFFFFF" fill-rule="nonzero">
                            <path d="M6.50332509,4.12741736e-15 C7.60184495,2.05632353 8.21794603,4.36242647 9.16534675,6.55235294 C11.0194623,11.0367647 14.2568991,15.0332353 17.6803287,18.4197794 C20.9177655,21.3822794 24.2307619,24.2576471 27.3345164,27.3653676 C30.8916283,30.8564706 33.1816644,35.3757353 34.2162493,40.2319118 C32.6294984,41.0044853 31.0078738,41.6841176 29.3571879,42.3230882 C26.1953107,36.8395588 21.7721699,32.2622059 16.2621338,29.1196324 C11.2170796,26.2849265 5.53848755,24.2169853 0.284191519,21.8121324 C-0.099418589,18.7392647 -0.0703572171,15.7767647 0.226068776,12.6980882 C1.68494964,15.3004412 3.60300018,17.3393382 5.85816264,19.2678676 C4.75964278,15.8116176 3.33563556,11.9429412 3.46931787,8.28338235 C3.55068971,5.25117647 4.77707961,2.44551471 6.50332509,4.12741736e-15 Z" id="p2"></path>
                        </g>
                        <g id="p3-link" transform="translate(27.509495, 28.893088)" fill="#FFFFFF" fill-rule="nonzero">
                            <path d="M3.72566787,0 C5.48097473,2.24801471 6.96891697,4.65286765 8.86953069,6.79051471 C13.0892419,11.7280147 18.5004693,15.7128676 24.2371841,18.7218382 C30.5958123,22.1141912 37.4891697,24.1530882 43.7373646,27.6964706 C47.8524549,30.0025735 51.3979422,33.2148529 54.2343321,36.9789706 C56.7975451,40.4875 58.2448014,44.3794118 59.6164982,48.4572059 C60.3837184,45.91875 60.4011552,43.8682353 59.994296,41.2658824 C62.6098195,40.2667647 65.1323466,39.20375 67.3351986,37.4378676 C71.2352347,34.4521324 73.5136462,29.9561029 76.2163538,25.9770588 C78.0414079,23.2759559 80.4593141,20.6503676 83.6153791,19.5525 C87.4572924,18.3675 91.938556,18.9251471 94.6819495,22.1025735 C96.1989531,23.6361029 96.6464982,25.4891176 96.8615523,27.5744853 C99.291083,29.1602941 101.284693,30.6763971 102.284404,33.5227206 C99.8781227,33.2206618 96.9952347,32.5061765 94.6470758,33.2729412 C92.002491,34.1094118 90.1774368,36.5839706 89.2939711,39.1108088 C87.9048375,42.9794853 88.0908303,46.7029412 87.3933574,50.6645588 C86.3529603,57.6525735 83.4700722,64.3966176 78.4424549,69.4502941 C73.4322744,74.4226471 66.6086643,77.8324265 59.6804332,79.0638971 C57.2160289,79.1800735 57.1695307,76.8972059 55.8559567,75.4391912 C53.9262816,74.0683088 50.9329603,74.6491912 49.6368231,76.6590441 C48.6661733,77.9660294 49.0788448,79.5634559 49.0962816,81.0911765 C45.8588448,81.2828676 42.4237906,81.0679412 39.2619134,81.8347059 C36.140722,82.6188971 34.6237184,85.2967647 32.624296,87.5563971 C31.0084838,89.3745588 29.4740433,91.4541176 27.5269314,92.9179412 C24.6672924,94.9742647 20.9474368,95.2356618 17.7274368,93.8996324 C19.7152347,91.8433088 21.819278,89.9263971 23.6268953,87.6958088 C20.0930325,89.3745588 17.2915162,91.5063971 13.1589892,91.2798529 C10.6015884,91.2914706 8.75909747,89.9844853 6.9166065,88.3754412 C9.89249097,86.9522794 12.9555596,85.7963235 15.8093863,84.1291912 C13.5890975,84.2918382 11.3223105,84.6810294 9.09039711,84.5880882 C5.94595668,84.2221324 2.77245487,82.7815441 1.67393502,79.5808824 C2.9700722,79.1510294 4.27202166,78.7560294 5.62046931,78.5120588 C12.1127798,77.3561029 18.8492058,75.93875 24.9985921,73.5164706 C28.8928159,71.9713235 32.8161011,69.9091912 35.6408664,66.7433824 C37.0474368,65.2330882 37.7332852,63.5485294 39.8024549,62.805 C42.1680505,61.8465441 43.6327437,60.7254412 45.2834296,58.8085294 C41.5228881,59.9470588 37.9134657,60.8067647 33.9553069,60.1155147 C27.5908664,58.9886029 21.0869314,55.6601471 17.2508303,50.3276471 C21.6100361,50.8446324 25.8762455,50.6761765 29.9274007,48.8463971 C24.0337545,48.4920588 18.2156679,47.4871324 13.1008664,44.3736029 C9.77043321,42.3347059 7.46877256,39.3141176 5.67277978,35.8985294 C10.3458484,38.0361765 15.1293502,39.5232353 20.337148,39.1630882 C17.8262455,38.0245588 15.2572202,37.22875 12.816065,35.9333824 C8.74747292,33.7841176 5.13805054,30.8448529 2.66202166,26.9238971 C0.778844765,23.9207353 0.174368231,20.0811029 0,16.6016176 C3.58036101,20.9756618 7.92794224,24.6061765 13.3101083,26.5405147 C10.6713357,23.6361029 7.85819495,21.3822794 5.84714801,17.9318382 C4.08021661,14.8763971 2.39465704,11.2923529 2.24935018,7.71992647 C2.15054152,4.96073529 2.1098556,2.37580882 3.72566787,0 Z M86.5622022,26.3372059 C87.4166065,27.2956618 87.8409025,28.3528676 89.3288448,28.3354412 C90.4215523,28.0043382 90.7935379,27.1097794 91.5026354,26.3081618 C90.7354152,25.0999265 90.5319856,24.0194853 88.8289892,24.1647059 C87.3759206,24.2286029 87.2654874,25.3206618 86.5622022,26.3372059 Z" id="p3"></path>
                        </g>
                        <g id="p4-link" transform="translate(114.071697, 53.044652)" fill="#8E80CD" fill-rule="nonzero">
                            <path d="M2.266787,0.0131425332 C3.96978339,-0.132078055 4.173213,0.948363121 4.94043321,2.15659842 C4.23133574,2.95821606 3.85935018,3.85277489 2.7666426,4.18387783 C1.27870036,4.2013043 0.854404332,3.14409842 0,2.18564253 C0.703285199,1.16909842 0.813718412,0.077039592 2.266787,0.0131425332 Z" id="p4"></path>
                        </g>
                        <g id="p5-link" transform="translate(78.603728, 105.517279)" fill="#FFFFFF" fill-rule="nonzero">
                            <path d="M2.1520123,0 C2.65768017,0.174264706 3.15753577,0.348529412 3.66320364,0.528602941 C3.8085105,1.31279412 3.95381735,2.09698529 4.10493649,2.87536765 C5.71493649,3.84544118 7.94684985,4.70514706 8.58620003,6.62205882 C9.12092927,8.23691176 9.2952975,10.2351471 7.39468378,11.0077206 C6.3019762,10.1073529 6.86576681,8.28338235 6.47053216,6.98801471 C4.85471988,5.12919118 1.95439497,4.76904412 0.251398582,3.23551471 C-0.521633909,1.51029412 0.59432277,0.522794118 2.1520123,0 Z" id="p5"></path>
                        </g>
                        <g id="p6-link" transform="translate(74.089061, 109.833235)" fill="#FFFFFF" fill-rule="nonzero">
                            <path d="M22.7259928,-1.65096694e-14 C20.2674007,3.99066176 17.6693141,7.91742647 15.0131047,11.7744853 C14.1005776,13.3196324 12.75213,12.3727941 11.4908664,11.9371324 C7.63151625,10.17125 3.76054152,8.41117647 1.65194773e-14,6.43617647 C3.02819495,5.42544118 6.09707581,4.58897059 9.17176895,3.72926471 C9.2298917,4.80389706 9.02064982,6.08183824 9.41588448,7.09838235 C10.549278,8.69 12.9032491,8.96882353 14.2865704,7.51661765 C15.8268231,6.14573529 15.2572202,3.89191176 15.3269675,2.06794118 C17.7797473,1.31860294 20.2325271,0.598308824 22.7259928,-1.65096694e-14 Z" id="p6"></path>
                        </g>
                        <g id="p7-link" transform="translate(73.159097, 110.965956)" fill="#FFFFFF" fill-rule="nonzero">
                            <path d="M25.5216968,0 C26.7829603,3.56080882 27.5676173,7.26102941 28.7184477,10.8566912 C29.0729964,12.4657353 29.8402166,14.2025735 28.3929603,15.5095588 C26.6260289,16.6016176 24.2836823,16.8746324 22.307509,17.47875 C17.4600722,18.8902941 12.5893863,20.2088971 7.74776173,21.62625 C6.67830325,21.8934559 5.63790614,22.1374265 4.56263538,21.7308088 C3.41761733,21.0802206 3.13862816,19.2911029 2.75501805,18.1293382 C1.82505415,14.4291176 0.424296029,11.06 0,7.24360294 C3.10956679,8.62029412 6.2133213,10.0202206 9.27057762,11.5072794 C8.05,13.8772794 6.47487365,16.1194853 5.48097473,18.5940441 L6.53299639,19.4769853 C8.52079422,17.5542647 9.55537906,14.7079412 11.1479422,12.4541176 C12.5428881,12.9304412 14.3505054,13.9644118 15.8326354,13.5171324 C17.0415884,12.7968382 17.8262455,11.2691176 18.6341516,10.1480147 C20.8835018,11.2226471 22.9817329,12.6980882 25.2950181,13.6158824 C25.9808664,13.9992647 26.4458484,13.6797794 26.6957762,12.6574265 C24.6614801,10.96125 22.0575812,9.93308824 19.8024188,8.53316176 C21.2554874,6.18058824 22.772491,3.86867647 24.3708664,1.60904412 C24.7486643,1.07463235 25.1380866,0.534411765 25.5216968,0 Z" id="p7"></path>
                        </g>
                    </g>
                </g>
            </g>
        </g>
    </g>
</svg>